<svg width="24" height="24" viewBox="0 0 24 24" fill="none" xmlns="http://www.w3.org/2000/svg">
<g clip-path="url(#clip0_128_27)">
<path fill-rule="evenodd" clip-rule="evenodd" d="M21.147 1.58418e-06H2.853C2.09731 -0.000794627 1.37223 0.298572 0.83722 0.832272C0.302207 1.36597 0.0010602 2.09031 0 2.846L0 21.154C0.0010602 21.9097 0.302207 22.634 0.83722 23.1677C1.37223 23.7014 2.09731 24.0008 2.853 24H21.147C21.9027 24.0008 22.6278 23.7014 23.1628 23.1677C23.6978 22.634 23.9989 21.9097 24 21.154V2.846C23.9989 2.09031 23.6978 1.36597 23.1628 0.832272C22.6278 0.298572 21.9027 -0.000794627 21.147 1.58418e-06ZM17.25 3.75C17.25 3.55109 17.329 3.36032 17.4697 3.21967C17.6103 3.07902 17.8011 3 18 3H20.25C20.4489 3 20.6397 3.07902 20.7803 3.21967C20.921 3.36032 21 3.55109 21 3.75V6C21 6.19891 20.921 6.38968 20.7803 6.53033C20.6397 6.67098 20.4489 6.75 20.25 6.75H18C17.8011 6.75 17.6103 6.67098 17.4697 6.53033C17.329 6.38968 17.25 6.19891 17.25 6V3.75ZM12.028 7.423C12.6334 7.42234 13.233 7.54094 13.7926 7.772C14.3521 8.00307 14.8607 8.34209 15.2892 8.7697C15.7178 9.19732 16.0579 9.70515 16.2902 10.2642C16.5225 10.8233 16.6423 11.4226 16.643 12.028C16.6414 13.2505 16.1543 14.4223 15.2889 15.2857C14.4234 16.149 13.2505 16.6333 12.028 16.632C9.479 16.632 7.413 14.571 7.413 12.028C7.413 9.485 9.479 7.423 12.028 7.423ZM21.75 21C21.75 21.1989 21.671 21.3897 21.5303 21.5303C21.3897 21.671 21.1989 21.75 21 21.75H3C2.80109 21.75 2.61032 21.671 2.46967 21.5303C2.32902 21.3897 2.25 21.1989 2.25 21V9.75H5.25C4.86 10.312 4.727 11.361 4.727 12.028C4.727 16.044 8.003 19.312 12.027 19.312C16.054 19.312 19.329 16.044 19.329 12.028C19.329 11.361 19.234 10.328 18.75 9.75H21.75V21Z" fill="#353535"/>
</g>
<defs>
<clipPath id="clip0_128_27">
<rect width="24" height="24" fill="white"/>
</clipPath>
</defs>
</svg>
