<svg width="24" height="24" viewBox="0 0 24 24" fill="none" xmlns="http://www.w3.org/2000/svg">
<g clip-path="url(#clip0_128_24)">
<path fill-rule="evenodd" clip-rule="evenodd" d="M23.338 2.383C22.3795 2.98997 21.3196 3.41948 20.209 3.651C19.313 2.635 18.033 2 16.615 2C13.898 2 11.693 4.343 11.693 7.232C11.693 7.642 11.736 8.041 11.82 8.424C7.728 8.205 4.1 6.124 1.67 2.955C1.23054 3.76322 1.00151 4.66903 1.004 5.589C1.004 7.403 1.874 9.005 3.195 9.943C2.40817 9.91579 1.64075 9.69161 0.963 9.291V9.355C0.963 11.891 2.661 14.007 4.915 14.485C4.49369 14.6097 4.05638 14.672 3.617 14.67C3.3 14.67 2.991 14.639 2.691 14.577C3.317 16.655 5.135 18.169 7.29 18.209C5.605 19.613 3.48 20.45 1.175 20.45C0.777 20.45 0.385 20.426 0 20.378C2.179 21.861 4.768 22.728 7.548 22.728C16.606 22.728 21.558 14.755 21.558 7.84C21.558 7.612 21.553 7.385 21.545 7.162C22.5177 6.41228 23.349 5.49529 24 4.454C23.1069 4.8756 22.1528 5.15336 21.173 5.277C22.2177 4.60249 22.9859 3.57566 23.338 2.383Z" fill="#353535"/>
</g>
<defs>
<clipPath id="clip0_128_24">
<rect width="24" height="24" fill="white"/>
</clipPath>
</defs>
</svg>
